<mxfile host="app.diagrams.net" agent="Mozilla/5.0 (Windows NT 10.0; Win64; x64) AppleWebKit/537.36 (KHTML, like Gecko) Chrome/132.0.0.0 Safari/537.36" version="26.0.15">
  <diagram name="Page-1" id="ZcPle69oM_x-DS9AqBfx">
    <mxGraphModel dx="5432" dy="4076" grid="1" gridSize="10" guides="1" tooltips="1" connect="1" arrows="1" fold="1" page="1" pageScale="1" pageWidth="1100" pageHeight="850" math="0" shadow="0">
      <root>
        <mxCell id="0" />
        <mxCell id="1" parent="0" />
        <mxCell id="uDvyb79ecXHqOZ444v_c-3" value="User" style="swimlane;fontStyle=1;align=center;verticalAlign=top;childLayout=stackLayout;horizontal=1;startSize=26;horizontalStack=0;resizeParent=1;resizeParentMax=0;resizeLast=0;collapsible=1;marginBottom=0;whiteSpace=wrap;html=1;" parent="1" vertex="1">
          <mxGeometry x="220" y="-1000" width="190" height="190" as="geometry" />
        </mxCell>
        <mxCell id="uDvyb79ecXHqOZ444v_c-4" value="- id&lt;div&gt;&lt;br&gt;&lt;/div&gt;" style="text;strokeColor=none;fillColor=none;align=left;verticalAlign=top;spacingLeft=4;spacingRight=4;overflow=hidden;rotatable=0;points=[[0,0.5],[1,0.5]];portConstraint=eastwest;whiteSpace=wrap;html=1;" parent="uDvyb79ecXHqOZ444v_c-3" vertex="1">
          <mxGeometry y="26" width="190" height="26" as="geometry" />
        </mxCell>
        <mxCell id="uDvyb79ecXHqOZ444v_c-9" value="- username&lt;div&gt;&lt;br&gt;&lt;/div&gt;" style="text;strokeColor=none;fillColor=none;align=left;verticalAlign=top;spacingLeft=4;spacingRight=4;overflow=hidden;rotatable=0;points=[[0,0.5],[1,0.5]];portConstraint=eastwest;whiteSpace=wrap;html=1;" parent="uDvyb79ecXHqOZ444v_c-3" vertex="1">
          <mxGeometry y="52" width="190" height="26" as="geometry" />
        </mxCell>
        <mxCell id="uDvyb79ecXHqOZ444v_c-10" value="- email&lt;div&gt;&lt;br&gt;&lt;/div&gt;" style="text;strokeColor=none;fillColor=none;align=left;verticalAlign=top;spacingLeft=4;spacingRight=4;overflow=hidden;rotatable=0;points=[[0,0.5],[1,0.5]];portConstraint=eastwest;whiteSpace=wrap;html=1;" parent="uDvyb79ecXHqOZ444v_c-3" vertex="1">
          <mxGeometry y="78" width="190" height="26" as="geometry" />
        </mxCell>
        <mxCell id="uDvyb79ecXHqOZ444v_c-7" value="- password&lt;div&gt;&lt;br&gt;&lt;/div&gt;" style="text;strokeColor=none;fillColor=none;align=left;verticalAlign=top;spacingLeft=4;spacingRight=4;overflow=hidden;rotatable=0;points=[[0,0.5],[1,0.5]];portConstraint=eastwest;whiteSpace=wrap;html=1;" parent="uDvyb79ecXHqOZ444v_c-3" vertex="1">
          <mxGeometry y="104" width="190" height="26" as="geometry" />
        </mxCell>
        <mxCell id="uDvyb79ecXHqOZ444v_c-37" value="- questions : array&amp;lt;Question&amp;gt;&lt;div&gt;&lt;br&gt;&lt;/div&gt;" style="text;strokeColor=none;fillColor=none;align=left;verticalAlign=top;spacingLeft=4;spacingRight=4;overflow=hidden;rotatable=0;points=[[0,0.5],[1,0.5]];portConstraint=eastwest;whiteSpace=wrap;html=1;" parent="uDvyb79ecXHqOZ444v_c-3" vertex="1">
          <mxGeometry y="130" width="190" height="26" as="geometry" />
        </mxCell>
        <mxCell id="uDvyb79ecXHqOZ444v_c-18" value="- timestamp&lt;div&gt;&lt;br&gt;&lt;/div&gt;" style="text;strokeColor=none;fillColor=none;align=left;verticalAlign=top;spacingLeft=4;spacingRight=4;overflow=hidden;rotatable=0;points=[[0,0.5],[1,0.5]];portConstraint=eastwest;whiteSpace=wrap;html=1;" parent="uDvyb79ecXHqOZ444v_c-3" vertex="1">
          <mxGeometry y="156" width="190" height="26" as="geometry" />
        </mxCell>
        <mxCell id="uDvyb79ecXHqOZ444v_c-5" value="" style="line;strokeWidth=1;fillColor=none;align=left;verticalAlign=middle;spacingTop=-1;spacingLeft=3;spacingRight=3;rotatable=0;labelPosition=right;points=[];portConstraint=eastwest;strokeColor=inherit;" parent="uDvyb79ecXHqOZ444v_c-3" vertex="1">
          <mxGeometry y="182" width="190" height="8" as="geometry" />
        </mxCell>
        <mxCell id="uDvyb79ecXHqOZ444v_c-11" value="Question" style="swimlane;fontStyle=1;align=center;verticalAlign=top;childLayout=stackLayout;horizontal=1;startSize=26;horizontalStack=0;resizeParent=1;resizeParentMax=0;resizeLast=0;collapsible=1;marginBottom=0;whiteSpace=wrap;html=1;" parent="1" vertex="1">
          <mxGeometry x="510" y="-837" width="180" height="242" as="geometry" />
        </mxCell>
        <mxCell id="uDvyb79ecXHqOZ444v_c-12" value="- id&lt;div&gt;&lt;br&gt;&lt;/div&gt;" style="text;strokeColor=none;fillColor=none;align=left;verticalAlign=top;spacingLeft=4;spacingRight=4;overflow=hidden;rotatable=0;points=[[0,0.5],[1,0.5]];portConstraint=eastwest;whiteSpace=wrap;html=1;" parent="uDvyb79ecXHqOZ444v_c-11" vertex="1">
          <mxGeometry y="26" width="180" height="26" as="geometry" />
        </mxCell>
        <mxCell id="uDvyb79ecXHqOZ444v_c-13" value="- user_id" style="text;strokeColor=none;fillColor=none;align=left;verticalAlign=top;spacingLeft=4;spacingRight=4;overflow=hidden;rotatable=0;points=[[0,0.5],[1,0.5]];portConstraint=eastwest;whiteSpace=wrap;html=1;" parent="uDvyb79ecXHqOZ444v_c-11" vertex="1">
          <mxGeometry y="52" width="180" height="26" as="geometry" />
        </mxCell>
        <mxCell id="uDvyb79ecXHqOZ444v_c-39" value="- title : string" style="text;strokeColor=none;fillColor=none;align=left;verticalAlign=top;spacingLeft=4;spacingRight=4;overflow=hidden;rotatable=0;points=[[0,0.5],[1,0.5]];portConstraint=eastwest;whiteSpace=wrap;html=1;" parent="uDvyb79ecXHqOZ444v_c-11" vertex="1">
          <mxGeometry y="78" width="180" height="26" as="geometry" />
        </mxCell>
        <mxCell id="uDvyb79ecXHqOZ444v_c-51" value="- ville : string&lt;div&gt;&lt;br&gt;&lt;/div&gt;" style="text;strokeColor=none;fillColor=none;align=left;verticalAlign=top;spacingLeft=4;spacingRight=4;overflow=hidden;rotatable=0;points=[[0,0.5],[1,0.5]];portConstraint=eastwest;whiteSpace=wrap;html=1;" parent="uDvyb79ecXHqOZ444v_c-11" vertex="1">
          <mxGeometry y="104" width="180" height="26" as="geometry" />
        </mxCell>
        <mxCell id="uDvyb79ecXHqOZ444v_c-14" value="- content: string&lt;div&gt;&lt;br&gt;&lt;/div&gt;" style="text;strokeColor=none;fillColor=none;align=left;verticalAlign=top;spacingLeft=4;spacingRight=4;overflow=hidden;rotatable=0;points=[[0,0.5],[1,0.5]];portConstraint=eastwest;whiteSpace=wrap;html=1;" parent="uDvyb79ecXHqOZ444v_c-11" vertex="1">
          <mxGeometry y="130" width="180" height="26" as="geometry" />
        </mxCell>
        <mxCell id="uDvyb79ecXHqOZ444v_c-38" value="- responses : array&amp;lt;Response&amp;gt;&lt;div&gt;&lt;br&gt;&lt;/div&gt;" style="text;strokeColor=none;fillColor=none;align=left;verticalAlign=top;spacingLeft=4;spacingRight=4;overflow=hidden;rotatable=0;points=[[0,0.5],[1,0.5]];portConstraint=eastwest;whiteSpace=wrap;html=1;" parent="uDvyb79ecXHqOZ444v_c-11" vertex="1">
          <mxGeometry y="156" width="180" height="26" as="geometry" />
        </mxCell>
        <mxCell id="uDvyb79ecXHqOZ444v_c-99" value="- likes: array&amp;lt;Like&amp;gt;&lt;div&gt;&lt;br&gt;&lt;/div&gt;" style="text;strokeColor=none;fillColor=none;align=left;verticalAlign=top;spacingLeft=4;spacingRight=4;overflow=hidden;rotatable=0;points=[[0,0.5],[1,0.5]];portConstraint=eastwest;whiteSpace=wrap;html=1;" parent="uDvyb79ecXHqOZ444v_c-11" vertex="1">
          <mxGeometry y="182" width="180" height="26" as="geometry" />
        </mxCell>
        <mxCell id="uDvyb79ecXHqOZ444v_c-28" value="- timestamp&lt;div&gt;&lt;br&gt;&lt;/div&gt;" style="text;strokeColor=none;fillColor=none;align=left;verticalAlign=top;spacingLeft=4;spacingRight=4;overflow=hidden;rotatable=0;points=[[0,0.5],[1,0.5]];portConstraint=eastwest;whiteSpace=wrap;html=1;" parent="uDvyb79ecXHqOZ444v_c-11" vertex="1">
          <mxGeometry y="208" width="180" height="26" as="geometry" />
        </mxCell>
        <mxCell id="uDvyb79ecXHqOZ444v_c-16" value="" style="line;strokeWidth=1;fillColor=none;align=left;verticalAlign=middle;spacingTop=-1;spacingLeft=3;spacingRight=3;rotatable=0;labelPosition=right;points=[];portConstraint=eastwest;strokeColor=inherit;" parent="uDvyb79ecXHqOZ444v_c-11" vertex="1">
          <mxGeometry y="234" width="180" height="8" as="geometry" />
        </mxCell>
        <mxCell id="uDvyb79ecXHqOZ444v_c-29" value="Response" style="swimlane;fontStyle=1;align=center;verticalAlign=top;childLayout=stackLayout;horizontal=1;startSize=26;horizontalStack=0;resizeParent=1;resizeParentMax=0;resizeLast=0;collapsible=1;marginBottom=0;whiteSpace=wrap;html=1;" parent="1" vertex="1">
          <mxGeometry x="770" y="-987" width="160" height="164" as="geometry" />
        </mxCell>
        <mxCell id="uDvyb79ecXHqOZ444v_c-30" value="- id : int" style="text;strokeColor=none;fillColor=none;align=left;verticalAlign=top;spacingLeft=4;spacingRight=4;overflow=hidden;rotatable=0;points=[[0,0.5],[1,0.5]];portConstraint=eastwest;whiteSpace=wrap;html=1;" parent="uDvyb79ecXHqOZ444v_c-29" vertex="1">
          <mxGeometry y="26" width="160" height="26" as="geometry" />
        </mxCell>
        <mxCell id="uDvyb79ecXHqOZ444v_c-31" value="- user : User" style="text;strokeColor=none;fillColor=none;align=left;verticalAlign=top;spacingLeft=4;spacingRight=4;overflow=hidden;rotatable=0;points=[[0,0.5],[1,0.5]];portConstraint=eastwest;whiteSpace=wrap;html=1;" parent="uDvyb79ecXHqOZ444v_c-29" vertex="1">
          <mxGeometry y="52" width="160" height="26" as="geometry" />
        </mxCell>
        <mxCell id="uDvyb79ecXHqOZ444v_c-36" value="- question : Question" style="text;strokeColor=none;fillColor=none;align=left;verticalAlign=top;spacingLeft=4;spacingRight=4;overflow=hidden;rotatable=0;points=[[0,0.5],[1,0.5]];portConstraint=eastwest;whiteSpace=wrap;html=1;" parent="uDvyb79ecXHqOZ444v_c-29" vertex="1">
          <mxGeometry y="78" width="160" height="26" as="geometry" />
        </mxCell>
        <mxCell id="uDvyb79ecXHqOZ444v_c-32" value="- content : string" style="text;strokeColor=none;fillColor=none;align=left;verticalAlign=top;spacingLeft=4;spacingRight=4;overflow=hidden;rotatable=0;points=[[0,0.5],[1,0.5]];portConstraint=eastwest;whiteSpace=wrap;html=1;" parent="uDvyb79ecXHqOZ444v_c-29" vertex="1">
          <mxGeometry y="104" width="160" height="26" as="geometry" />
        </mxCell>
        <mxCell id="uDvyb79ecXHqOZ444v_c-33" value="- timestamp&lt;div&gt;&lt;br&gt;&lt;/div&gt;" style="text;strokeColor=none;fillColor=none;align=left;verticalAlign=top;spacingLeft=4;spacingRight=4;overflow=hidden;rotatable=0;points=[[0,0.5],[1,0.5]];portConstraint=eastwest;whiteSpace=wrap;html=1;" parent="uDvyb79ecXHqOZ444v_c-29" vertex="1">
          <mxGeometry y="130" width="160" height="26" as="geometry" />
        </mxCell>
        <mxCell id="uDvyb79ecXHqOZ444v_c-34" value="" style="line;strokeWidth=1;fillColor=none;align=left;verticalAlign=middle;spacingTop=-1;spacingLeft=3;spacingRight=3;rotatable=0;labelPosition=right;points=[];portConstraint=eastwest;strokeColor=inherit;" parent="uDvyb79ecXHqOZ444v_c-29" vertex="1">
          <mxGeometry y="156" width="160" height="8" as="geometry" />
        </mxCell>
        <mxCell id="uDvyb79ecXHqOZ444v_c-41" value="" style="endArrow=diamondThin;endFill=0;endSize=24;html=1;rounded=0;" parent="1" source="uDvyb79ecXHqOZ444v_c-11" target="uDvyb79ecXHqOZ444v_c-3" edge="1">
          <mxGeometry width="160" relative="1" as="geometry">
            <mxPoint x="690" y="-837" as="sourcePoint" />
            <mxPoint x="850" y="-837" as="targetPoint" />
          </mxGeometry>
        </mxCell>
        <mxCell id="uDvyb79ecXHqOZ444v_c-43" value="" style="endArrow=diamondThin;endFill=1;endSize=24;html=1;rounded=0;" parent="1" source="uDvyb79ecXHqOZ444v_c-29" target="uDvyb79ecXHqOZ444v_c-11" edge="1">
          <mxGeometry width="160" relative="1" as="geometry">
            <mxPoint x="690" y="-837" as="sourcePoint" />
            <mxPoint x="850" y="-837" as="targetPoint" />
          </mxGeometry>
        </mxCell>
        <mxCell id="uDvyb79ecXHqOZ444v_c-91" value="Like" style="swimlane;fontStyle=1;align=center;verticalAlign=top;childLayout=stackLayout;horizontal=1;startSize=26;horizontalStack=0;resizeParent=1;resizeParentMax=0;resizeLast=0;collapsible=1;marginBottom=0;whiteSpace=wrap;html=1;" parent="1" vertex="1">
          <mxGeometry x="760" y="-557" width="160" height="112" as="geometry" />
        </mxCell>
        <mxCell id="uDvyb79ecXHqOZ444v_c-92" value="- id : int" style="text;strokeColor=none;fillColor=none;align=left;verticalAlign=top;spacingLeft=4;spacingRight=4;overflow=hidden;rotatable=0;points=[[0,0.5],[1,0.5]];portConstraint=eastwest;whiteSpace=wrap;html=1;" parent="uDvyb79ecXHqOZ444v_c-91" vertex="1">
          <mxGeometry y="26" width="160" height="26" as="geometry" />
        </mxCell>
        <mxCell id="uDvyb79ecXHqOZ444v_c-93" value="- user : User" style="text;strokeColor=none;fillColor=none;align=left;verticalAlign=top;spacingLeft=4;spacingRight=4;overflow=hidden;rotatable=0;points=[[0,0.5],[1,0.5]];portConstraint=eastwest;whiteSpace=wrap;html=1;" parent="uDvyb79ecXHqOZ444v_c-91" vertex="1">
          <mxGeometry y="52" width="160" height="26" as="geometry" />
        </mxCell>
        <mxCell id="uDvyb79ecXHqOZ444v_c-96" value="- timestamp&lt;div&gt;&lt;br&gt;&lt;/div&gt;" style="text;strokeColor=none;fillColor=none;align=left;verticalAlign=top;spacingLeft=4;spacingRight=4;overflow=hidden;rotatable=0;points=[[0,0.5],[1,0.5]];portConstraint=eastwest;whiteSpace=wrap;html=1;" parent="uDvyb79ecXHqOZ444v_c-91" vertex="1">
          <mxGeometry y="78" width="160" height="26" as="geometry" />
        </mxCell>
        <mxCell id="uDvyb79ecXHqOZ444v_c-97" value="" style="line;strokeWidth=1;fillColor=none;align=left;verticalAlign=middle;spacingTop=-1;spacingLeft=3;spacingRight=3;rotatable=0;labelPosition=right;points=[];portConstraint=eastwest;strokeColor=inherit;" parent="uDvyb79ecXHqOZ444v_c-91" vertex="1">
          <mxGeometry y="104" width="160" height="8" as="geometry" />
        </mxCell>
        <mxCell id="uDvyb79ecXHqOZ444v_c-98" value="" style="endArrow=diamondThin;endFill=1;endSize=24;html=1;rounded=0;" parent="1" source="uDvyb79ecXHqOZ444v_c-91" target="uDvyb79ecXHqOZ444v_c-11" edge="1">
          <mxGeometry width="160" relative="1" as="geometry">
            <mxPoint x="900" y="-811" as="sourcePoint" />
            <mxPoint x="800" y="-810" as="targetPoint" />
          </mxGeometry>
        </mxCell>
        <mxCell id="uDvyb79ecXHqOZ444v_c-100" value="User(id,username,email,password,questions[Question]),&lt;div&gt;Question (id,user,title,ville,content;responses[Response],likes[Like])&lt;/div&gt;&lt;div&gt;Response(int,user,question,content)&lt;/div&gt;&lt;div&gt;Like(id,user)&lt;/div&gt;&lt;div&gt;Ville (id,name&lt;span style=&quot;background-color: transparent; color: light-dark(rgb(0, 0, 0), rgb(255, 255, 255));&quot;&gt;)&lt;/span&gt;&lt;/div&gt;" style="text;html=1;align=left;verticalAlign=middle;whiteSpace=wrap;rounded=0;" parent="1" vertex="1">
          <mxGeometry x="840" y="-1325" width="400" height="200" as="geometry" />
        </mxCell>
        <mxCell id="uDvyb79ecXHqOZ444v_c-101" value="" style="endArrow=none;html=1;rounded=0;" parent="1" source="uDvyb79ecXHqOZ444v_c-3" target="uDvyb79ecXHqOZ444v_c-29" edge="1">
          <mxGeometry width="50" height="50" relative="1" as="geometry">
            <mxPoint x="890" y="-747" as="sourcePoint" />
            <mxPoint x="940" y="-797" as="targetPoint" />
          </mxGeometry>
        </mxCell>
        <mxCell id="uDvyb79ecXHqOZ444v_c-103" value="" style="rounded=0;whiteSpace=wrap;html=1;" parent="1" vertex="1">
          <mxGeometry x="1390" y="-1125" width="950" height="1335" as="geometry" />
        </mxCell>
        <mxCell id="uDvyb79ecXHqOZ444v_c-104" value="&lt;font style=&quot;font-size: 18px;&quot;&gt;Cas d&#39;Utilisation&lt;/font&gt;&lt;div&gt;&lt;span style=&quot;font-size: 18px;&quot;&gt;&lt;b&gt;&lt;u&gt;Ask Around&lt;/u&gt;&lt;/b&gt;&lt;/span&gt;&lt;/div&gt;" style="text;html=1;align=left;verticalAlign=middle;whiteSpace=wrap;rounded=0;" parent="1" vertex="1">
          <mxGeometry x="1410" y="-1105" width="220" height="75" as="geometry" />
        </mxCell>
        <mxCell id="uDvyb79ecXHqOZ444v_c-105" value="&lt;div style=&quot;&quot;&gt;&lt;font face=&quot;Nunito Sans, sans-serif&quot;&gt;&lt;span style=&quot;font-size: 14px; white-space-collapse: preserve; background-color: rgb(255, 255, 255);&quot;&gt;autherization&lt;/span&gt;&lt;/font&gt;&lt;/div&gt;" style="ellipse;whiteSpace=wrap;html=1;fillColor=#6666FF;align=center;" parent="1" vertex="1">
          <mxGeometry x="1880" y="-745" width="180" height="60" as="geometry" />
        </mxCell>
        <mxCell id="uDvyb79ecXHqOZ444v_c-106" value="Guest" style="shape=umlActor;verticalLabelPosition=bottom;verticalAlign=top;html=1;outlineConnect=0;" parent="1" vertex="1">
          <mxGeometry x="1320" y="-925" width="30" height="60" as="geometry" />
        </mxCell>
        <mxCell id="uDvyb79ecXHqOZ444v_c-107" value="&lt;div style=&quot;text-align: start;&quot;&gt;&lt;font face=&quot;Nunito Sans, sans-serif&quot; color=&quot;#000000&quot;&gt;&lt;span style=&quot;font-size: 14px; white-space-collapse: preserve; background-color: rgb(255, 255, 255);&quot;&gt;register&lt;/span&gt;&lt;/font&gt;&lt;/div&gt;" style="ellipse;whiteSpace=wrap;html=1;fillColor=#99FFFF;" parent="1" vertex="1">
          <mxGeometry x="1510" y="-925" width="150" height="60" as="geometry" />
        </mxCell>
        <mxCell id="uDvyb79ecXHqOZ444v_c-112" value="&lt;font face=&quot;Nunito Sans, sans-serif&quot;&gt;&lt;span style=&quot;font-size: 14px; white-space-collapse: preserve; background-color: rgb(255, 255, 255);&quot;&gt;handle question&lt;/span&gt;&lt;/font&gt;" style="ellipse;whiteSpace=wrap;html=1;fillColor=#CC99FF;" parent="1" vertex="1">
          <mxGeometry x="1507" y="-640" width="150" height="60" as="geometry" />
        </mxCell>
        <mxCell id="uDvyb79ecXHqOZ444v_c-113" value="&lt;div style=&quot;text-align: start;&quot;&gt;&lt;font face=&quot;Nunito Sans, sans-serif&quot; color=&quot;#000000&quot;&gt;&lt;span style=&quot;font-size: 14px; white-space-collapse: preserve; background-color: rgb(255, 255, 255);&quot;&gt;login&lt;/span&gt;&lt;/font&gt;&lt;/div&gt;" style="ellipse;whiteSpace=wrap;html=1;fillColor=#CC99FF;" parent="1" vertex="1">
          <mxGeometry x="1510" y="-825" width="150" height="60" as="geometry" />
        </mxCell>
        <mxCell id="uDvyb79ecXHqOZ444v_c-114" value="User" style="shape=umlActor;verticalLabelPosition=bottom;verticalAlign=top;html=1;outlineConnect=0;" parent="1" vertex="1">
          <mxGeometry x="1320" y="-420" width="30" height="60" as="geometry" />
        </mxCell>
        <mxCell id="uDvyb79ecXHqOZ444v_c-119" value="" style="endArrow=none;html=1;rounded=0;entryX=0;entryY=0.5;entryDx=0;entryDy=0;" parent="1" source="uDvyb79ecXHqOZ444v_c-106" target="uDvyb79ecXHqOZ444v_c-107" edge="1">
          <mxGeometry width="50" height="50" relative="1" as="geometry">
            <mxPoint x="1540" y="-405" as="sourcePoint" />
            <mxPoint x="1590" y="-455" as="targetPoint" />
          </mxGeometry>
        </mxCell>
        <mxCell id="uDvyb79ecXHqOZ444v_c-129" value="" style="endArrow=none;html=1;rounded=0;entryX=0;entryY=0.5;entryDx=0;entryDy=0;" parent="1" source="uDvyb79ecXHqOZ444v_c-114" target="uDvyb79ecXHqOZ444v_c-113" edge="1">
          <mxGeometry width="50" height="50" relative="1" as="geometry">
            <mxPoint x="1330" y="-59" as="sourcePoint" />
            <mxPoint x="1488" y="-102" as="targetPoint" />
          </mxGeometry>
        </mxCell>
        <mxCell id="uDvyb79ecXHqOZ444v_c-130" value="&lt;div style=&quot;text-align: start;&quot;&gt;&lt;font face=&quot;Nunito Sans, sans-serif&quot; color=&quot;#000000&quot;&gt;&lt;span style=&quot;font-size: 14px; white-space-collapse: preserve; background-color: rgb(255, 255, 255);&quot;&gt;logout&lt;/span&gt;&lt;/font&gt;&lt;/div&gt;" style="ellipse;whiteSpace=wrap;html=1;fillColor=#CC99FF;" parent="1" vertex="1">
          <mxGeometry x="1507" y="-740" width="150" height="60" as="geometry" />
        </mxCell>
        <mxCell id="uDvyb79ecXHqOZ444v_c-131" value="" style="endArrow=none;html=1;rounded=0;entryX=0;entryY=0.5;entryDx=0;entryDy=0;" parent="1" source="uDvyb79ecXHqOZ444v_c-114" target="uDvyb79ecXHqOZ444v_c-130" edge="1">
          <mxGeometry width="50" height="50" relative="1" as="geometry">
            <mxPoint x="1330" y="-69" as="sourcePoint" />
            <mxPoint x="1503" y="-225" as="targetPoint" />
          </mxGeometry>
        </mxCell>
        <mxCell id="uDvyb79ecXHqOZ444v_c-133" value="" style="endArrow=none;html=1;rounded=0;entryX=0;entryY=0.5;entryDx=0;entryDy=0;" parent="1" source="uDvyb79ecXHqOZ444v_c-114" target="uDvyb79ecXHqOZ444v_c-112" edge="1">
          <mxGeometry width="50" height="50" relative="1" as="geometry">
            <mxPoint x="1330" y="-69" as="sourcePoint" />
            <mxPoint x="1504" y="-225" as="targetPoint" />
          </mxGeometry>
        </mxCell>
        <mxCell id="uDvyb79ecXHqOZ444v_c-140" value="&lt;div style=&quot;text-align: start;&quot;&gt;&lt;font face=&quot;Nunito Sans, sans-serif&quot; color=&quot;#000000&quot;&gt;&lt;span style=&quot;font-size: 14px; white-space-collapse: preserve; background-color: rgb(255, 255, 255);&quot;&gt;update profil&lt;/span&gt;&lt;/font&gt;&lt;/div&gt;" style="ellipse;whiteSpace=wrap;html=1;fillColor=#CC99FF;" parent="1" vertex="1">
          <mxGeometry x="1510" y="15" width="150" height="60" as="geometry" />
        </mxCell>
        <mxCell id="uDvyb79ecXHqOZ444v_c-141" value="" style="endArrow=none;html=1;rounded=0;entryX=0;entryY=0.5;entryDx=0;entryDy=0;" parent="1" source="uDvyb79ecXHqOZ444v_c-114" target="uDvyb79ecXHqOZ444v_c-140" edge="1">
          <mxGeometry width="50" height="50" relative="1" as="geometry">
            <mxPoint x="1330" y="50" as="sourcePoint" />
            <mxPoint x="1519" y="203" as="targetPoint" />
          </mxGeometry>
        </mxCell>
        <mxCell id="uDvyb79ecXHqOZ444v_c-145" value="&lt;div style=&quot;&quot;&gt;&lt;font face=&quot;Nunito Sans, sans-serif&quot; color=&quot;#000000&quot;&gt;&lt;span style=&quot;font-size: 14px; white-space-collapse: preserve; background-color: rgb(255, 255, 255);&quot;&gt;saved question&lt;/span&gt;&lt;/font&gt;&lt;/div&gt;" style="ellipse;whiteSpace=wrap;html=1;fillColor=#CC99FF;align=center;" parent="1" vertex="1">
          <mxGeometry x="1510" y="-65" width="150" height="60" as="geometry" />
        </mxCell>
        <mxCell id="uDvyb79ecXHqOZ444v_c-147" value="" style="endArrow=none;html=1;rounded=0;entryX=0;entryY=0.5;entryDx=0;entryDy=0;exitX=0.5;exitY=0.5;exitDx=0;exitDy=0;exitPerimeter=0;" parent="1" source="uDvyb79ecXHqOZ444v_c-114" target="uDvyb79ecXHqOZ444v_c-145" edge="1">
          <mxGeometry width="50" height="50" relative="1" as="geometry">
            <mxPoint x="1333" y="-301" as="sourcePoint" />
            <mxPoint x="1537" y="125" as="targetPoint" />
          </mxGeometry>
        </mxCell>
        <mxCell id="uDvyb79ecXHqOZ444v_c-154" value="&lt;div style=&quot;&quot;&gt;&lt;span style=&quot;color: light-dark(rgb(0, 0, 0), rgb(255, 255, 255)); font-size: 14px; white-space-collapse: preserve; background-color: rgb(255, 255, 255);&quot;&gt;&lt;font face=&quot;Nunito Sans, sans-serif&quot;&gt;Authentification&lt;/font&gt;&lt;/span&gt;&lt;/div&gt;" style="ellipse;whiteSpace=wrap;html=1;fillColor=#6666FF;align=center;" parent="1" vertex="1">
          <mxGeometry x="1880" y="-855" width="180" height="60" as="geometry" />
        </mxCell>
        <mxCell id="uDvyb79ecXHqOZ444v_c-155" value="&lt;font face=&quot;Nunito Sans, sans-serif&quot;&gt;&lt;span style=&quot;font-size: 14px; white-space-collapse: preserve; background-color: rgb(255, 255, 255);&quot;&gt;add&lt;/span&gt;&lt;/font&gt;" style="ellipse;whiteSpace=wrap;html=1;fillColor=#CC99FF;" parent="1" vertex="1">
          <mxGeometry x="1490" y="-550" width="110" height="60" as="geometry" />
        </mxCell>
        <mxCell id="uDvyb79ecXHqOZ444v_c-160" style="edgeStyle=orthogonalEdgeStyle;rounded=0;orthogonalLoop=1;jettySize=auto;html=1;entryX=1;entryY=1;entryDx=0;entryDy=0;" parent="1" source="uDvyb79ecXHqOZ444v_c-156" target="uDvyb79ecXHqOZ444v_c-112" edge="1">
          <mxGeometry relative="1" as="geometry" />
        </mxCell>
        <mxCell id="uDvyb79ecXHqOZ444v_c-156" value="&lt;font face=&quot;Nunito Sans, sans-serif&quot;&gt;&lt;span style=&quot;font-size: 14px; white-space-collapse: preserve; background-color: rgb(255, 255, 255);&quot;&gt;delete&lt;/span&gt;&lt;/font&gt;" style="ellipse;whiteSpace=wrap;html=1;fillColor=#CC99FF;" parent="1" vertex="1">
          <mxGeometry x="1610" y="-545" width="110" height="60" as="geometry" />
        </mxCell>
        <mxCell id="uDvyb79ecXHqOZ444v_c-161" style="edgeStyle=orthogonalEdgeStyle;rounded=0;orthogonalLoop=1;jettySize=auto;html=1;exitX=0.5;exitY=0;exitDx=0;exitDy=0;" parent="1" source="uDvyb79ecXHqOZ444v_c-157" target="uDvyb79ecXHqOZ444v_c-112" edge="1">
          <mxGeometry relative="1" as="geometry" />
        </mxCell>
        <mxCell id="uDvyb79ecXHqOZ444v_c-157" value="&lt;font face=&quot;Nunito Sans, sans-serif&quot;&gt;&lt;span style=&quot;font-size: 14px; white-space-collapse: preserve; background-color: rgb(255, 255, 255);&quot;&gt;update&lt;/span&gt;&lt;/font&gt;" style="ellipse;whiteSpace=wrap;html=1;fillColor=#CC99FF;" parent="1" vertex="1">
          <mxGeometry x="1710" y="-585" width="110" height="60" as="geometry" />
        </mxCell>
        <mxCell id="uDvyb79ecXHqOZ444v_c-159" style="edgeStyle=orthogonalEdgeStyle;rounded=0;orthogonalLoop=1;jettySize=auto;html=1;exitX=0.5;exitY=0;exitDx=0;exitDy=0;entryX=0.37;entryY=0.954;entryDx=0;entryDy=0;entryPerimeter=0;" parent="1" source="uDvyb79ecXHqOZ444v_c-155" target="uDvyb79ecXHqOZ444v_c-112" edge="1">
          <mxGeometry relative="1" as="geometry" />
        </mxCell>
        <mxCell id="uDvyb79ecXHqOZ444v_c-162" value="&lt;div style=&quot;&quot;&gt;&lt;font face=&quot;Nunito Sans, sans-serif&quot; color=&quot;#000000&quot;&gt;&lt;span style=&quot;font-size: 14px; white-space-collapse: preserve; background-color: rgb(255, 255, 255);&quot;&gt;search by city or keywords&lt;/span&gt;&lt;/font&gt;&lt;/div&gt;" style="ellipse;whiteSpace=wrap;html=1;fillColor=#CC99FF;align=center;" parent="1" vertex="1">
          <mxGeometry x="1507" y="-240" width="150" height="60" as="geometry" />
        </mxCell>
        <mxCell id="uDvyb79ecXHqOZ444v_c-163" value="&lt;div style=&quot;&quot;&gt;&lt;font face=&quot;Nunito Sans, sans-serif&quot; color=&quot;#000000&quot;&gt;&lt;span style=&quot;font-size: 14px; white-space-collapse: preserve; background-color: rgb(255, 255, 255);&quot;&gt;sort by&lt;/span&gt;&lt;/font&gt;&lt;/div&gt;" style="ellipse;whiteSpace=wrap;html=1;fillColor=#CC99FF;align=center;" parent="1" vertex="1">
          <mxGeometry x="1770" y="-145" width="150" height="60" as="geometry" />
        </mxCell>
        <mxCell id="uDvyb79ecXHqOZ444v_c-164" value="&lt;font face=&quot;Nunito Sans, sans-serif&quot;&gt;&lt;span style=&quot;font-size: 14px; white-space-collapse: preserve; background-color: rgb(255, 255, 255);&quot;&gt;browser questions&lt;/span&gt;&lt;/font&gt;" style="ellipse;whiteSpace=wrap;html=1;fillColor=#CC99FF;align=center;" parent="1" vertex="1">
          <mxGeometry x="1507" y="-155" width="150" height="60" as="geometry" />
        </mxCell>
        <mxCell id="uDvyb79ecXHqOZ444v_c-167" value="" style="endArrow=none;html=1;rounded=0;entryX=0;entryY=0.5;entryDx=0;entryDy=0;" parent="1" source="uDvyb79ecXHqOZ444v_c-114" target="uDvyb79ecXHqOZ444v_c-162" edge="1">
          <mxGeometry width="50" height="50" relative="1" as="geometry">
            <mxPoint x="1360" y="-399" as="sourcePoint" />
            <mxPoint x="1517" y="-600" as="targetPoint" />
          </mxGeometry>
        </mxCell>
        <mxCell id="uDvyb79ecXHqOZ444v_c-168" value="" style="endArrow=none;html=1;rounded=0;entryX=0;entryY=0.5;entryDx=0;entryDy=0;" parent="1" source="uDvyb79ecXHqOZ444v_c-114" target="uDvyb79ecXHqOZ444v_c-164" edge="1">
          <mxGeometry width="50" height="50" relative="1" as="geometry">
            <mxPoint x="1360" y="-383" as="sourcePoint" />
            <mxPoint x="1517" y="-415" as="targetPoint" />
          </mxGeometry>
        </mxCell>
        <mxCell id="uDvyb79ecXHqOZ444v_c-169" value="&lt;font style=&quot;font-size: 12px;&quot;&gt;&amp;lt;&amp;lt; extends &amp;gt;&amp;gt;&lt;/font&gt;" style="endArrow=block;dashed=1;endFill=0;endSize=12;html=1;rounded=0;entryX=1;entryY=0.5;entryDx=0;entryDy=0;" parent="1" source="uDvyb79ecXHqOZ444v_c-163" target="uDvyb79ecXHqOZ444v_c-164" edge="1">
          <mxGeometry width="160" relative="1" as="geometry">
            <mxPoint x="1240" y="-270" as="sourcePoint" />
            <mxPoint x="1400" y="-270" as="targetPoint" />
          </mxGeometry>
        </mxCell>
        <mxCell id="uDvyb79ecXHqOZ444v_c-170" value="&lt;div style=&quot;&quot;&gt;&lt;font face=&quot;Nunito Sans, sans-serif&quot; color=&quot;#000000&quot;&gt;&lt;span style=&quot;font-size: 14px; white-space-collapse: preserve; background-color: rgb(255, 255, 255);&quot;&gt;handle responses&lt;/span&gt;&lt;/font&gt;&lt;/div&gt;" style="ellipse;whiteSpace=wrap;html=1;fillColor=#CC99FF;align=center;" parent="1" vertex="1">
          <mxGeometry x="1510" y="-450" width="150" height="60" as="geometry" />
        </mxCell>
        <mxCell id="uDvyb79ecXHqOZ444v_c-175" style="edgeStyle=orthogonalEdgeStyle;rounded=0;orthogonalLoop=1;jettySize=auto;html=1;" parent="1" source="uDvyb79ecXHqOZ444v_c-171" target="uDvyb79ecXHqOZ444v_c-170" edge="1">
          <mxGeometry relative="1" as="geometry" />
        </mxCell>
        <mxCell id="uDvyb79ecXHqOZ444v_c-171" value="&lt;font face=&quot;Nunito Sans, sans-serif&quot;&gt;&lt;span style=&quot;font-size: 14px; white-space-collapse: preserve; background-color: rgb(255, 255, 255);&quot;&gt;add&lt;/span&gt;&lt;/font&gt;" style="ellipse;whiteSpace=wrap;html=1;fillColor=#CC99FF;" parent="1" vertex="1">
          <mxGeometry x="1480" y="-360" width="110" height="60" as="geometry" />
        </mxCell>
        <mxCell id="uDvyb79ecXHqOZ444v_c-176" style="edgeStyle=orthogonalEdgeStyle;rounded=0;orthogonalLoop=1;jettySize=auto;html=1;entryX=1;entryY=1;entryDx=0;entryDy=0;" parent="1" source="uDvyb79ecXHqOZ444v_c-172" target="uDvyb79ecXHqOZ444v_c-170" edge="1">
          <mxGeometry relative="1" as="geometry" />
        </mxCell>
        <mxCell id="uDvyb79ecXHqOZ444v_c-172" value="&lt;font face=&quot;Nunito Sans, sans-serif&quot;&gt;&lt;span style=&quot;font-size: 14px; white-space-collapse: preserve; background-color: rgb(255, 255, 255);&quot;&gt;delete&lt;/span&gt;&lt;/font&gt;" style="ellipse;whiteSpace=wrap;html=1;fillColor=#CC99FF;" parent="1" vertex="1">
          <mxGeometry x="1610" y="-350" width="110" height="60" as="geometry" />
        </mxCell>
        <mxCell id="uDvyb79ecXHqOZ444v_c-177" style="edgeStyle=orthogonalEdgeStyle;rounded=0;orthogonalLoop=1;jettySize=auto;html=1;entryX=1;entryY=0.5;entryDx=0;entryDy=0;" parent="1" source="uDvyb79ecXHqOZ444v_c-173" target="uDvyb79ecXHqOZ444v_c-170" edge="1">
          <mxGeometry relative="1" as="geometry" />
        </mxCell>
        <mxCell id="uDvyb79ecXHqOZ444v_c-173" value="&lt;font face=&quot;Nunito Sans, sans-serif&quot;&gt;&lt;span style=&quot;font-size: 14px; white-space-collapse: preserve; background-color: rgb(255, 255, 255);&quot;&gt;update&lt;/span&gt;&lt;/font&gt;" style="ellipse;whiteSpace=wrap;html=1;fillColor=#CC99FF;" parent="1" vertex="1">
          <mxGeometry x="1720" y="-390" width="110" height="60" as="geometry" />
        </mxCell>
        <mxCell id="uDvyb79ecXHqOZ444v_c-174" value="" style="endArrow=none;html=1;rounded=0;entryX=0;entryY=0.5;entryDx=0;entryDy=0;" parent="1" source="uDvyb79ecXHqOZ444v_c-114" target="uDvyb79ecXHqOZ444v_c-170" edge="1">
          <mxGeometry width="50" height="50" relative="1" as="geometry">
            <mxPoint x="1360" y="-399" as="sourcePoint" />
            <mxPoint x="1517" y="-600" as="targetPoint" />
          </mxGeometry>
        </mxCell>
        <mxCell id="uDvyb79ecXHqOZ444v_c-178" value="&lt;div style=&quot;&quot;&gt;&lt;font face=&quot;Nunito Sans, sans-serif&quot;&gt;&lt;span style=&quot;font-size: 14px; white-space-collapse: preserve; background-color: rgb(255, 255, 255);&quot;&gt;creation date&lt;/span&gt;&lt;/font&gt;&lt;/div&gt;" style="ellipse;whiteSpace=wrap;html=1;fillColor=#CC99FF;align=center;" parent="1" vertex="1">
          <mxGeometry x="1730" y="-50" width="150" height="60" as="geometry" />
        </mxCell>
        <mxCell id="uDvyb79ecXHqOZ444v_c-179" value="&lt;div style=&quot;&quot;&gt;&lt;font face=&quot;Nunito Sans, sans-serif&quot;&gt;&lt;span style=&quot;font-size: 14px; white-space-collapse: preserve; background-color: rgb(255, 255, 255);&quot;&gt;papularity&lt;/span&gt;&lt;/font&gt;&lt;/div&gt;" style="ellipse;whiteSpace=wrap;html=1;fillColor=#CC99FF;align=center;" parent="1" vertex="1">
          <mxGeometry x="1900" y="-45" width="150" height="60" as="geometry" />
        </mxCell>
        <mxCell id="uDvyb79ecXHqOZ444v_c-180" value="&lt;div style=&quot;&quot;&gt;&lt;font face=&quot;Nunito Sans, sans-serif&quot;&gt;&lt;span style=&quot;font-size: 14px; white-space-collapse: preserve; background-color: rgb(255, 255, 255);&quot;&gt;responses&lt;/span&gt;&lt;/font&gt;&lt;/div&gt;" style="ellipse;whiteSpace=wrap;html=1;fillColor=#CC99FF;align=center;" parent="1" vertex="1">
          <mxGeometry x="1960" y="-130" width="150" height="60" as="geometry" />
        </mxCell>
        <mxCell id="uDvyb79ecXHqOZ444v_c-181" value="&lt;div style=&quot;&quot;&gt;&lt;font face=&quot;Nunito Sans, sans-serif&quot;&gt;&lt;span style=&quot;font-size: 14px; white-space-collapse: preserve; background-color: rgb(255, 255, 255);&quot;&gt;likes&lt;/span&gt;&lt;/font&gt;&lt;/div&gt;" style="ellipse;whiteSpace=wrap;html=1;fillColor=#CC99FF;align=center;" parent="1" vertex="1">
          <mxGeometry x="1970" y="-215" width="150" height="60" as="geometry" />
        </mxCell>
        <mxCell id="uDvyb79ecXHqOZ444v_c-182" value="&lt;div style=&quot;text-align: start;&quot;&gt;&lt;font face=&quot;Nunito Sans, sans-serif&quot; color=&quot;#000000&quot;&gt;&lt;span style=&quot;font-size: 14px; white-space-collapse: preserve; background-color: rgb(255, 255, 255);&quot;&gt;statistic&lt;/span&gt;&lt;/font&gt;&lt;/div&gt;" style="ellipse;whiteSpace=wrap;html=1;fillColor=#CC99FF;" parent="1" vertex="1">
          <mxGeometry x="1507" y="110" width="150" height="60" as="geometry" />
        </mxCell>
        <mxCell id="uDvyb79ecXHqOZ444v_c-183" value="" style="endArrow=none;html=1;rounded=0;entryX=0;entryY=0.5;entryDx=0;entryDy=0;" parent="1" source="uDvyb79ecXHqOZ444v_c-114" target="uDvyb79ecXHqOZ444v_c-182" edge="1">
          <mxGeometry width="50" height="50" relative="1" as="geometry">
            <mxPoint x="1357" y="-350" as="sourcePoint" />
            <mxPoint x="1520" y="55" as="targetPoint" />
          </mxGeometry>
        </mxCell>
        <mxCell id="uDvyb79ecXHqOZ444v_c-184" value="Cities" style="swimlane;fontStyle=1;align=center;verticalAlign=top;childLayout=stackLayout;horizontal=1;startSize=26;horizontalStack=0;resizeParent=1;resizeParentMax=0;resizeLast=0;collapsible=1;marginBottom=0;whiteSpace=wrap;html=1;" parent="1" vertex="1">
          <mxGeometry x="230" y="-611" width="160" height="112" as="geometry" />
        </mxCell>
        <mxCell id="uDvyb79ecXHqOZ444v_c-185" value="- id : int" style="text;strokeColor=none;fillColor=none;align=left;verticalAlign=top;spacingLeft=4;spacingRight=4;overflow=hidden;rotatable=0;points=[[0,0.5],[1,0.5]];portConstraint=eastwest;whiteSpace=wrap;html=1;" parent="uDvyb79ecXHqOZ444v_c-184" vertex="1">
          <mxGeometry y="26" width="160" height="26" as="geometry" />
        </mxCell>
        <mxCell id="uDvyb79ecXHqOZ444v_c-186" value="- user : User" style="text;strokeColor=none;fillColor=none;align=left;verticalAlign=top;spacingLeft=4;spacingRight=4;overflow=hidden;rotatable=0;points=[[0,0.5],[1,0.5]];portConstraint=eastwest;whiteSpace=wrap;html=1;" parent="uDvyb79ecXHqOZ444v_c-184" vertex="1">
          <mxGeometry y="52" width="160" height="26" as="geometry" />
        </mxCell>
        <mxCell id="uDvyb79ecXHqOZ444v_c-187" value="- timestamp&lt;div&gt;&lt;br&gt;&lt;/div&gt;" style="text;strokeColor=none;fillColor=none;align=left;verticalAlign=top;spacingLeft=4;spacingRight=4;overflow=hidden;rotatable=0;points=[[0,0.5],[1,0.5]];portConstraint=eastwest;whiteSpace=wrap;html=1;" parent="uDvyb79ecXHqOZ444v_c-184" vertex="1">
          <mxGeometry y="78" width="160" height="26" as="geometry" />
        </mxCell>
        <mxCell id="uDvyb79ecXHqOZ444v_c-188" value="" style="line;strokeWidth=1;fillColor=none;align=left;verticalAlign=middle;spacingTop=-1;spacingLeft=3;spacingRight=3;rotatable=0;labelPosition=right;points=[];portConstraint=eastwest;strokeColor=inherit;" parent="uDvyb79ecXHqOZ444v_c-184" vertex="1">
          <mxGeometry y="104" width="160" height="8" as="geometry" />
        </mxCell>
        <mxCell id="uDvyb79ecXHqOZ444v_c-190" value="" style="endArrow=none;html=1;rounded=0;" parent="1" source="uDvyb79ecXHqOZ444v_c-184" target="uDvyb79ecXHqOZ444v_c-3" edge="1">
          <mxGeometry width="50" height="50" relative="1" as="geometry">
            <mxPoint x="480" y="-770" as="sourcePoint" />
            <mxPoint x="530" y="-820" as="targetPoint" />
          </mxGeometry>
        </mxCell>
      </root>
    </mxGraphModel>
  </diagram>
</mxfile>
